<svg xmlns="http://www.w3.org/2000/svg" width="25.218" height="25.218" viewBox="0 0 25.218 25.218">
  <g id="calendar-3" transform="translate(-50 -50)">
    <path id="Path_31" data-name="Path 31" d="M71.278,51.576V50H69.7v1.576H63.4V50H61.821v1.576h-6.3V50H53.94v1.576A3.945,3.945,0,0,0,50,55.516V71.278a3.945,3.945,0,0,0,3.94,3.94H71.278a3.945,3.945,0,0,0,3.94-3.94V55.516A3.945,3.945,0,0,0,71.278,51.576Zm2.364,19.7a2.367,2.367,0,0,1-2.364,2.364H53.94a2.367,2.367,0,0,1-2.364-2.364V55.516a2.367,2.367,0,0,1,2.364-2.364v1.576h1.576V53.152h6.3v1.576H63.4V53.152h6.3v1.576h1.576V53.152a2.367,2.367,0,0,1,2.364,2.364Z" fill="#9b9b7a"/>
    <circle id="Ellipse_8" data-name="Ellipse 8" cx="1.182" cy="1.182" r="1.182" transform="translate(54.335 57.487)" fill="#9b9b7a"/>
    <circle id="Ellipse_9" data-name="Ellipse 9" cx="1.182" cy="1.182" r="1.182" transform="translate(59.063 57.487)" fill="#9b9b7a"/>
    <circle id="Ellipse_10" data-name="Ellipse 10" cx="1.182" cy="1.182" r="1.182" transform="translate(63.791 57.487)" fill="#9b9b7a"/>
    <circle id="Ellipse_11" data-name="Ellipse 11" cx="1.182" cy="1.182" r="1.182" transform="translate(68.52 57.487)" fill="#9b9b7a"/>
    <circle id="Ellipse_12" data-name="Ellipse 12" cx="1.182" cy="1.182" r="1.182" transform="translate(54.335 62.215)" fill="#9b9b7a"/>
    <circle id="Ellipse_13" data-name="Ellipse 13" cx="1.182" cy="1.182" r="1.182" transform="translate(59.063 62.215)" fill="#9b9b7a"/>
    <circle id="Ellipse_14" data-name="Ellipse 14" cx="1.182" cy="1.182" r="1.182" transform="translate(63.791 62.215)" fill="#9b9b7a"/>
    <circle id="Ellipse_15" data-name="Ellipse 15" cx="1.182" cy="1.182" r="1.182" transform="translate(68.52 62.215)" fill="#9b9b7a"/>
    <circle id="Ellipse_16" data-name="Ellipse 16" cx="1.182" cy="1.182" r="1.182" transform="translate(54.335 66.944)" fill="#9b9b7a"/>
    <circle id="Ellipse_17" data-name="Ellipse 17" cx="1.182" cy="1.182" r="1.182" transform="translate(59.063 66.944)" fill="#9b9b7a"/>
    <circle id="Ellipse_18" data-name="Ellipse 18" cx="1.182" cy="1.182" r="1.182" transform="translate(63.791 66.944)" fill="#9b9b7a"/>
  </g>
</svg>
